<svg width="300" height="300" viewBox="0 0 300 300" xmlns="http://www.w3.org/2000/svg">
  <!-- Bagian utama gedung yang lebih besar -->
  <rect x="50" y="100" width="200" height="120" fill="#304156" rx="10" ry="10"/>

  <!-- Atap yang lebih rendah dan datar -->
  <rect x="50" y="80" width="200" height="20" fill="#202A3C"/>

  <!-- Tiang-tiang di bagian depan -->
  <rect x="60" y="120" width="15" height="100" fill="#A7A7A7"/>
  <rect x="90" y="120" width="15" height="100" fill="#A7A7A7"/>
  <rect x="120" y="120" width="15" height="100" fill="#A7A7A7"/>
  <rect x="150" y="120" width="15" height="100" fill="#A7A7A7"/>
  <rect x="180" y="120" width="15" height="100" fill="#A7A7A7"/>
  <rect x="210" y="120" width="15" height="100" fill="#A7A7A7"/>

  <!-- Pintu masuk yang megah -->
  <rect x="135" y="170" width="30" height="50" fill="#4B4B4B" rx="5" ry="5"/>

  <!-- Jendela-jendela yang teratur -->
  <rect x="65" y="110" width="20" height="20" fill="#FFFFFF"/>
  <rect x="110" y="110" width="20" height="20" fill="#FFFFFF"/>
  <rect x="160" y="110" width="20" height="20" fill="#FFFFFF"/>
  <rect x="205" y="110" width="20" height="20" fill="#FFFFFF"/>
  
  <!-- Tangga di depan pintu -->
  <rect x="120" y="220" width="60" height="10" fill="#808080"/>
  <rect x="110" y="230" width="80" height="10" fill="#808080"/>
  <rect x="100" y="240" width="100" height="10" fill="#808080"/>

</svg>
